<?xml version="1.0" encoding="UTF-8"?>
<svg xmlns="http://www.w3.org/2000/svg" id="Layer_1" data-name="Layer 1" viewBox="0 0 24 24">
  <path d="m0,10h24v8c0,2.761-2.239,5-5,5h-2.848c1.434-1.192,2.348-2.989,2.348-5,0-1.857-.779-3.532-2.029-4.716-.898-.851-2.116-1.284-3.353-1.284h-2.236c-1.237,0-2.455.433-3.353,1.284-1.249,1.184-2.029,2.859-2.029,4.716,0,2.011.914,3.808,2.348,5h-2.848c-2.761,0-5-2.239-5-5v-8Zm14,5.044v1.349c0,.996-.681,1.92-1.664,2.08-1.253.204-2.336-.758-2.336-1.973v-1.456c0-.489-.576-.744-.946-.424-.949.821-1.554,2.026-1.554,3.38,0,1.956,1.256,3.605,3,4.224v1.776c0,.552.448,1,1,1h1c.552,0,1-.448,1-1v-1.776c1.744-.62,3-2.268,3-4.224,0-1.354-.604-2.56-1.554-3.38-.37-.32-.946-.065-.946.424Zm10-9.044v2H0v-2C0,3.239,2.239,1,5,1h14c2.761,0,5,2.239,5,5Zm-19-1.5c0-.828-.672-1.5-1.5-1.5s-1.5.672-1.5,1.5.672,1.5,1.5,1.5,1.5-.672,1.5-1.5Zm4,0c0-.828-.672-1.5-1.5-1.5s-1.5.672-1.5,1.5.672,1.5,1.5,1.5,1.5-.672,1.5-1.5Z"/>
</svg>
