<?xml version="1.0" encoding="utf-8"?>
<!-- Generator: Adobe Illustrator 27.5.0, SVG Export Plug-In . SVG Version: 6.00 Build 0)  -->
<svg version="1.1" xmlns="http://www.w3.org/2000/svg" xmlns:xlink="http://www.w3.org/1999/xlink" x="0px" y="0px"
	 viewBox="0 0 3710 3710" style="enable-background:new 0 0 3710 3710;" xml:space="preserve">
<g id="Background">
	<g>
		<g>
			<rect style="fill:#FFFFFF;" width="3710" height="3710"/>
		</g>
	</g>
</g>
<g id="Illustration">
	<g>
		<linearGradient id="SVGID_1_" gradientUnits="userSpaceOnUse" x1="3408.6689" y1="3615.9121" x2="1370.9741" y2="1416.4954">
			<stop  offset="0" style="stop-color:#DAE3FE"/>
			<stop  offset="1" style="stop-color:#E9EFFD"/>
		</linearGradient>
		<path style="fill:url(#SVGID_1_);" d="M3137.881,2357.73c-282.981,648.355-1029.96,926.839-1615.23,879.357
			c-159.802-12.964-481.328-39.05-732.379-271.764c-482.125-446.914-407.873-1381.09,53.659-1931.08
			c59.436-70.827,470.841-545.364,1111.939-539.012c469.377,4.651,798.829,264.552,838.889,296.931
			c50.606,40.903,162.224,138.102,262.819,292.301C3293.939,1446.778,3314.716,1952.573,3137.881,2357.73z"/>
		<g>
			<path style="fill:#91B3FA;" d="M3198.835,1483.526c9.675-7.209,22.698-0.476,23.371,12.038
				c10.293,191.547,27.952,1309.935-941.996,1540.634C2280.21,3036.197,2092.874,2307.54,3198.835,1483.526z"/>
			<path style="opacity:0.48;fill:#FFFFFF;" d="M3140.251,1668.671c-25.917,55.325-52.851,110.035-80.225,164.522
				c-27.395,54.469-55.366,108.612-83.912,162.411c-28.547,53.799-57.67,107.255-87.373,160.349
				c-29.724,53.081-60.199,105.687-91.275,157.89c-62.323,104.277-127.463,206.756-197.61,305.345
				c-34.927,49.404-71.501,97.511-109.718,144.109c-38.273,46.528-78.285,91.565-121.452,133.121
				c-2.373,2.284-5.968,2.102-8.03-0.407c-2.062-2.509-1.81-6.395,0.563-8.679l0.021-0.02l0.019-0.018
				c42.872-40.881,82.808-85.398,121.065-131.472c38.207-46.146,74.844-93.871,109.872-142.94
				c70.348-97.913,135.814-199.866,198.498-303.671c31.258-51.969,61.925-104.355,91.847-157.227
				c29.903-52.885,59.232-106.143,87.99-159.752c28.758-53.609,56.944-107.569,84.557-161.859
				c27.586-54.296,54.759-108.871,80.865-163.952l0.01-0.022c0.612-1.291,2.067-1.827,3.249-1.196
				C3140.395,1665.833,3140.863,1667.38,3140.251,1668.671z"/>
		</g>
		<g>
			<path style="fill:#BDD0FB;" d="M3031.823,486.755c10.407-10.49,26.959-4.17,29.695,11.287
				c41.885,236.6,235.895,1624.729-883.575,2064.533C2177.942,2562.576,1842.136,1685.892,3031.823,486.755z"/>
			<path style="opacity:0.48;fill:#FFFFFF;" d="M2998.278,676.825c1.636,0.617,2.522,2.613,1.985,4.464
				c-21.263,73.297-43.839,146.007-66.977,218.523c-23.167,72.496-47.073,144.691-71.723,216.563
				c-49.297,143.744-101.444,286.274-157.448,426.907c-56.092,140.566-115.841,279.408-182.219,414.329
				c-32.995,67.571-68.173,133.83-105.567,198.515c-37.472,64.609-77.271,127.683-121.43,187.013
				c-2.63,3.534-7.297,3.988-10.423,1.014c-3.126-2.974-3.528-8.25-0.897-11.784l0.025-0.033l0.021-0.028
				c43.904-58.365,83.702-120.725,121.24-184.72c37.466-64.076,72.796-129.832,105.984-196.972
				c66.763-134.052,127.032-272.251,183.676-412.251c56.56-140.072,109.304-282.13,159.215-425.443
				c24.958-71.658,49.176-143.649,72.657-215.947c23.447-72.3,46.356-144.875,67.909-217.88l0.009-0.031
				C2994.862,677.208,2996.636,676.206,2998.278,676.825z"/>
		</g>
		<g>
			<g>
				
					<linearGradient id="SVGID_00000175289974535152991430000013454691723988195713_" gradientUnits="userSpaceOnUse" x1="2601.394" y1="4229.1074" x2="5176.1284" y2="4229.1074" gradientTransform="matrix(0.0148 -0.9999 -1.0907 -0.0161 6196.5918 5805.4731)">
					<stop  offset="0" style="stop-color:#09005D"/>
					<stop  offset="1" style="stop-color:#1A0F91"/>
				</linearGradient>
				<path style="fill:url(#SVGID_00000175289974535152991430000013454691723988195713_);" d="M2359.567,3147.132l-1380.412-20.427
					c-113.557-1.68-205.312-77.906-206.85-171.849c-6.83-417.246-16.77-1876.365-3.82-2273.268
					c2.226-68.217,69.057-122.517,151.553-123.266c320.802-2.91,1092.134-3.932,1449.468,47.377
					c75.251,10.805,130.85,64.28,132.355,127.396c8.344,349.638,28.375,1896.541,11.729,2293.203
					C2510.719,3094.709,2442.325,3148.357,2359.567,3147.132z"/>
				<path style="fill:#91B3FA;" d="M2336.287,3075.75l-1357.3-20.085c-68.617-1.015-123.876-45.866-124.091-100.717l-1.461-2214.333
					c-0.213-54.38,55.172-98.134,123.204-97.33l1345.228,16.202c48.644,0.575,88.041,32.137,88.649,71.02l23.752,2267.396
					C2434.948,3041.393,2390.69,3076.555,2336.287,3075.75z"/>
			</g>
		</g>
		<g>
			<g>
				<g>
					
						<linearGradient id="SVGID_00000085968735631297506220000006377199634604817285_" gradientUnits="userSpaceOnUse" x1="1503.5394" y1="2901.802" x2="1898.9552" y2="2064.0564">
						<stop  offset="0" style="stop-color:#FE7062"/>
						<stop  offset="1" style="stop-color:#FF928E"/>
					</linearGradient>
					<path style="fill:url(#SVGID_00000085968735631297506220000006377199634604817285_);" d="M2314.344,2800.836
						c-15.757-48.197-43.493-91.042-79.842-125.763c-45.97-43.911-105.715-74.83-172.426-87.15c0,0-86.586-14.966-181.583-39.437
						c-31.036-7.995-64.251-1.297-89.145,17.832c-66.37,50.999-190.997,117.391-386.764,112.914
						c-177.336-4.055-279.259-57.135-334.512-102.823c-25.713-21.262-61.13-28.823-94.035-19.799
						c-71.526,19.617-131.018,31.312-131.018,31.312c-119.461,22.063-271.339,103.764-307.021,212.913
						c-34.186,104.571-60.677,216.351-64.398,360.465c-1.353,52.396,19.495,80.419,75.393,80.419l1764.203,15.079
						c55.898,0,71.72-68.233,70.367-120.629C2379.843,2992.056,2348.53,2905.407,2314.344,2800.836z"/>
					
						<linearGradient id="SVGID_00000088118497145462130250000003942931206512007815_" gradientUnits="userSpaceOnUse" x1="1412.3444" y1="2701.4387" x2="1432.4503" y2="2319.4265">
						<stop  offset="0" style="stop-color:#FEBBBA"/>
						<stop  offset="1" style="stop-color:#FF928E"/>
					</linearGradient>
					<path style="fill:url(#SVGID_00000088118497145462130250000003942931206512007815_);" d="M1404.584,2688.15
						c241.391,5.888,410.629-90.974,459.846-142.444c-97.867-30.325-225.68-82.359-227.21-125.505l-14.738-415.613h-388.776
						l-14.738,415.613c-1.633,46.054-150.623,106.205-242.931,137.17C1015.504,2607.801,1175.796,2682.571,1404.584,2688.15z"/>
				</g>
				<g>
					
						<linearGradient id="SVGID_00000001628703832993689540000013519368828380039816_" gradientUnits="userSpaceOnUse" x1="1453.4197" y1="2485.0193" x2="1393.1011" y2="1459.6146">
						<stop  offset="0" style="stop-color:#FEBBBA"/>
						<stop  offset="1" style="stop-color:#FF928E"/>
					</linearGradient>
					<path style="fill:url(#SVGID_00000001628703832993689540000013519368828380039816_);" d="M1087.118,1636.017
						c0,0,55.946,606.049,219.333,671.183c0,0,132.582,57.104,243.333-7.502c0,0,182.672-166.247,169.542-659.067
						c0,0,15.124-285.549-299.95-309.181C1050.202,1303.762,1087.118,1636.017,1087.118,1636.017z"/>
					
						<linearGradient id="SVGID_00000180327868620946322530000016896667411642604434_" gradientUnits="userSpaceOnUse" x1="1766.1888" y1="2466.6216" x2="1705.8705" y2="1441.2216">
						<stop  offset="0" style="stop-color:#FEBBBA"/>
						<stop  offset="1" style="stop-color:#FF928E"/>
					</linearGradient>
					<path style="fill:url(#SVGID_00000180327868620946322530000016896667411642604434_);" d="M1687.025,1849.097
						c0,0,27.688-83.065,73.833-83.065c46.147,0-9.228,221.506-73.833,221.506V1849.097z"/>
					
						<linearGradient id="SVGID_00000000189618243082379470000016575085945811625874_" gradientUnits="userSpaceOnUse" x1="1138.6318" y1="2503.5369" x2="1078.3134" y2="1478.1365">
						<stop  offset="0" style="stop-color:#FEBBBA"/>
						<stop  offset="1" style="stop-color:#FF928E"/>
					</linearGradient>
					<path style="fill:url(#SVGID_00000000189618243082379470000016575085945811625874_);" d="M1147.787,1830.152
						c0,0-38.069-70.344-83.796-64.12c-45.724,6.222,19.781,229.834,83.796,221.124V1830.152z"/>
					
						<linearGradient id="SVGID_00000117670562269954438840000011910618853633705090_" gradientUnits="userSpaceOnUse" x1="1380.0475" y1="1143.4501" x2="1380.0475" y2="1652.7991">
						<stop  offset="0" style="stop-color:#09005D"/>
						<stop  offset="1" style="stop-color:#1A0F91"/>
					</linearGradient>
					<path style="fill:url(#SVGID_00000117670562269954438840000011910618853633705090_);" d="M1137.477,1789.446
						c-17.726,7.868-38.4-0.913-45.02-19.142c-11.646-32.068-29.53-80.803-44.013-118.046
						c-23.584-60.645-148.243-138.135-16.846-289.747c131.397-151.612,205.809,12.937,293.262-30.592
						c87.453-43.529,191.896-144.604,282.864-80.59c90.967,64.014,30.322,124.659,60.645,141.505
						c30.322,16.846,77.491-70.752,111.182,47.168c26.067,91.235-16.393,259.2-36.946,330.55
						c-4.992,17.329-24.708,25.596-40.568,17.014h0c-8.37-4.529-13.892-12.943-14.695-22.425
						c-2.276-26.885-7.627-86.448-15.603-153.312c-10.853-90.989-93.895,35.072-255.835,52.912
						c-161.941,17.84-148.464-69.758-225.954-69.758c-32.692,0-33.683,114.033-32.591,163.189
						C1157.657,1771.652,1149.801,1783.977,1137.477,1789.446L1137.477,1789.446z"/>
					<g style="opacity:0.31;">
						<path style="fill:#FFFFFF;" d="M1089.759,1704.729c3.299-2.144,3.441-6.975,2.602-11.137
							c-0.379-2.117-1.162-4.255-1.852-6.443c-0.724-2.161-1.327-4.356-2.148-6.483c-3.121-8.565-7.025-16.825-11.223-24.931
							c-8.68-16.092-18.557-31.582-28.254-47.372c-4.784-7.937-9.579-15.909-13.868-24.237c-4.302-8.302-8.391-16.811-11.453-25.78
							c-6.503-17.833-9.352-36.946-9.086-55.913c0.555-18.969,4.091-37.911,11.075-55.619c6.88-17.727,17.246-34.134,30.179-48.028
							c25.935-27.717,62.083-45.543,99.34-48.349c0.709-0.054,1.329,0.479,1.382,1.189c0.05,0.665-0.426,1.252-1.069,1.368
							c-36.086,6.365-69.152,25.103-93.106,51.772c-23.901,26.721-37.498,62.054-38.511,97.893
							c-0.357,17.893,1.953,35.926,7.9,52.875c5.686,17.07,14.281,33.251,23.38,49.191c9.108,15.953,18.907,31.745,26.875,48.614
							c3.912,8.465,7.523,17.092,10.325,26.016c0.741,2.213,1.264,4.502,1.904,6.747c0.607,2.235,1.285,4.491,1.581,6.951
							c0.306,2.416,0.385,4.923-0.18,7.45c-0.518,2.502-2.066,5.092-4.466,6.434c-0.621,0.347-1.406,0.125-1.753-0.496
							C1089,1705.845,1089.196,1705.096,1089.759,1704.729z"/>
					</g>
					<path style="opacity:0.31;fill:#FFFFFF;" d="M1106.191,1711.628c-0.105,0-0.213-0.01-0.318-0.029
						c-0.91-0.173-1.505-1.05-1.332-1.96c6.97-36.504-11.166-71.598-28.706-105.533c-17.056-33.002-34.695-67.131-30.3-103.406
						c6.169-50.9,53.377-85.764,88.349-107.562c0.779-0.478,1.816-0.252,2.31,0.537c0.488,0.785,0.249,1.819-0.537,2.31
						c-34.39,21.431-80.803,55.645-86.798,105.121c-4.267,35.248,13.129,68.908,29.953,101.462
						c17.799,34.442,36.206,70.056,29.02,107.699C1107.679,1711.068,1106.976,1711.628,1106.191,1711.628z"/>
					<g style="opacity:0.31;">
						<path style="fill:#FFFFFF;" d="M1342.638,1580.59c3.026,9.606,9.168,18.042,17.142,24.112
							c7.886,6.206,17.36,10.241,27.118,12.358c9.796,1.989,19.929,1.846,29.846,0.059c9.921-1.705,19.548-5.044,28.846-9.113
							c9.28-4.156,18.257-9.054,27.024-14.399c8.759-5.37,17.491-10.805,26.058-16.555c17.195-11.383,34.084-23.383,51.507-34.753
							c8.674-5.733,17.583-11.173,26.592-16.459c9.119-5.117,18.369-10.06,28.018-14.236c19.236-8.43,39.359-15.264,60.877-16.77
							c5.366-0.335,10.822-0.127,16.222,0.753c5.396,0.858,10.751,2.433,15.706,4.92l1.852,0.938l1.758,1.095
							c1.165,0.742,2.357,1.441,3.487,2.224c2.132,1.749,4.395,3.346,6.241,5.39c3.959,3.818,7.099,8.341,9.74,13.028
							c5.315,9.432,8.101,19.81,9.994,30.105c1.91,10.33,2.667,20.747,3.111,31.117c0.03,0.711-0.521,1.312-1.232,1.342
							c-0.679,0.029-1.259-0.49-1.336-1.155c-1.157-10.256-2.41-20.498-4.719-30.449c-1.103-4.988-2.578-9.857-4.259-14.618
							c-0.948-2.331-1.803-4.71-2.914-6.949l-1.612-3.382l-1.855-3.231c-2.552-4.237-5.503-8.229-9.11-11.495
							c-1.678-1.776-3.726-3.097-5.624-4.591c-1.015-0.656-2.083-1.231-3.115-1.853l-1.559-0.92l-1.636-0.766
							c-8.764-4.094-18.811-4.939-28.684-4.245c-4.958,0.361-9.921,1.115-14.851,2.158c-4.927,1.061-9.817,2.545-14.72,3.802
							c-9.663,3.124-19.283,6.458-28.528,10.792c-9.344,4.078-18.322,9.015-27.312,13.914c-8.88,5.131-17.683,10.421-26.319,16.046
							c-17.332,11.14-34.289,23.014-51.697,34.369c-8.675,5.709-17.51,11.242-26.544,16.45
							c-9.017,5.245-18.351,10.097-28.056,14.204c-9.734,4.023-19.885,7.32-30.425,8.912c-10.472,1.68-21.421,1.647-31.855-0.906
							c-10.359-2.616-20.261-7.245-28.452-14.143c-8.31-6.714-14.499-16.106-17.208-26.414c-0.181-0.688,0.23-1.392,0.918-1.573
							c0.667-0.175,1.348,0.206,1.554,0.855L1342.638,1580.59z"/>
					</g>
				</g>
				<path style="fill:#FFFFFF;" d="M1313.429,2122.112c68.789,90.291,136.314,78.494,223.517,0
					C1466.592,2136.744,1383.782,2141.396,1313.429,2122.112z"/>
				
					<linearGradient id="SVGID_00000173849530654276966150000015125459229741740986_" gradientUnits="userSpaceOnUse" x1="1572.6554" y1="1812.7058" x2="1579.8716" y2="1741.3453">
					<stop  offset="0" style="stop-color:#09005D"/>
					<stop  offset="1" style="stop-color:#1A0F91"/>
				</linearGradient>
				<path style="fill:url(#SVGID_00000173849530654276966150000015125459229741740986_);" d="M1473.54,1787.443L1473.54,1787.443
					c0,7.355,7.19,12.591,14.169,10.271c33.835-11.247,121.453-33.963,187.665,5.162c0,0-37.004-85.109-194.907-25.526
					C1476.286,1778.927,1473.54,1782.974,1473.54,1787.443z"/>
				
					<linearGradient id="SVGID_00000180367659131435557200000005161646509013628859_" gradientUnits="userSpaceOnUse" x1="876.2042" y1="1812.7058" x2="883.4203" y2="1741.3453" gradientTransform="matrix(-1 0 0 1 2137 0)">
					<stop  offset="0" style="stop-color:#09005D"/>
					<stop  offset="1" style="stop-color:#1A0F91"/>
				</linearGradient>
				<path style="fill:url(#SVGID_00000180367659131435557200000005161646509013628859_);" d="M1359.911,1787.443L1359.911,1787.443
					c0,7.355-7.19,12.591-14.17,10.271c-33.836-11.247-121.453-33.963-187.665,5.162c0,0,37.004-85.109,194.907-25.526
					C1357.165,1778.927,1359.911,1782.974,1359.911,1787.443z"/>
			</g>
			<g>
				<path style="fill:#FFFFFF;" d="M954.205,1340.539c-9.255,0-16.755-7.5-16.755-16.755v-139.108
					c0-35.601,28.964-64.565,64.565-64.565h96.272c9.255,0,16.755,7.501,16.755,16.755s-7.5,16.755-16.755,16.755h-96.272
					c-17.125,0-31.055,13.931-31.055,31.055v139.108C970.96,1333.039,963.46,1340.539,954.205,1340.539z"/>
				<path style="fill:#FFFFFF;" d="M1887.509,1340.539c-9.255,0-16.755-7.5-16.755-16.755v-139.108
					c0-17.125-13.934-31.055-31.059-31.055h-96.269c-9.255,0-16.755-7.5-16.755-16.755s7.5-16.755,16.755-16.755h96.269
					c35.604,0,64.569,28.964,64.569,64.565v139.108C1904.264,1333.039,1896.763,1340.539,1887.509,1340.539z"/>
			</g>
			<g>
				<path style="fill:#FFFFFF;" d="M1098.288,2441.294h-96.272c-35.601,0-64.565-28.964-64.565-64.565V2237.62
					c0-9.255,7.5-16.755,16.755-16.755c9.254,0,16.755,7.5,16.755,16.755v139.108c0,17.125,13.931,31.055,31.055,31.055h96.272
					c9.255,0,16.755,7.5,16.755,16.755S1107.542,2441.294,1098.288,2441.294z"/>
				<path style="fill:#FFFFFF;" d="M1839.695,2441.294h-96.269c-9.255,0-16.755-7.5-16.755-16.755s7.5-16.755,16.755-16.755h96.269
					c17.125,0,31.059-13.931,31.059-31.055V2237.62c0-9.255,7.5-16.755,16.755-16.755c9.254,0,16.755,7.5,16.755,16.755v139.108
					C1904.264,2412.329,1875.299,2441.294,1839.695,2441.294z"/>
			</g>
			<g>
				<g>
					<circle style="fill:#FFFFFF;" cx="1186.736" cy="1624.205" r="21.325"/>
					<circle style="fill:#FFFFFF;" cx="1276.678" cy="1884.039" r="21.325"/>
					<circle style="fill:#FFFFFF;" cx="1041.828" cy="1864.052" r="21.325"/>
					
						<ellipse transform="matrix(0.2298 -0.9732 0.9732 0.2298 -1211.1389 2797.3794)" style="fill:#FFFFFF;" cx="1161.752" cy="2163.86" rx="21.325" ry="21.325"/>
					<circle style="fill:#FFFFFF;" cx="1441.573" cy="1624.205" r="21.325"/>
					
						<ellipse transform="matrix(0.9239 -0.3827 0.3827 0.9239 -788.3197 724.3357)" style="fill:#FFFFFF;" cx="1426.582" cy="2343.745" rx="21.325" ry="21.325"/>
					<circle style="fill:#FFFFFF;" cx="1701.407" cy="1624.205" r="21.325"/>
					<circle style="fill:#FFFFFF;" cx="1556.499" cy="1884.039" r="21.325"/>
					<circle style="fill:#FFFFFF;" cx="1826.327" cy="1884.039" r="21.325"/>
					
						<ellipse transform="matrix(0.1602 -0.9871 0.9871 0.1602 -719.6369 3481.8877)" style="fill:#FFFFFF;" cx="1686.416" cy="2163.86" rx="21.325" ry="21.325"/>
				</g>
				<g>
					<g>
						<path style="fill:#FFFFFF;" d="M1426.67,2346.797l-1.42-0.961l-265.392-180.295l-120.528-301.629l146.571-242.023
							l517.077,0.181l0.678,1.415l125.472,260.761l-0.547,1.098l-140.184,280.216l-0.527,0.366L1426.67,2346.797z
							 M1163.928,2162.271l262.713,178.465l257.863-178.553l139.061-277.976l-123.729-257.14h-257.126l-253.998-0.18
							l-143.819,237.485L1163.928,2162.271z"/>
					</g>
					<g>
						<path style="fill:#FFFFFF;" d="M1426.826,2352.35l-152.891-468.66l0.639-0.995l168.549-263.406l116.024,264.572l-0.244,0.859
							L1426.826,2352.35z M1279.42,1884.392l147.064,450.791l127.365-450.962l-111.555-254.374L1279.42,1884.392z"/>
					</g>
					<g>
						<polygon style="fill:#FFFFFF;" points="1557.636,1886.901 1276.678,1886.901 1042.472,1866.996 1042.892,1862.019 
							1276.888,1881.914 1558.195,1881.904 1827.463,1881.728 1827.463,1886.725 						"/>
					</g>
					<g>
						<polygon style="fill:#FFFFFF;" points="1158.14,2166.405 1159.59,2162.945 1280.123,1874.409 1184.974,1625.281 
							1189.639,1623.495 1285.5,1874.496 1285.115,1875.414 1165.645,2161.408 1682.59,2161.374 1553.683,1874.282 
							1705.603,1622.914 1709.877,1625.5 1559.314,1874.623 1690.31,2166.37 						"/>
					</g>
				</g>
			</g>
		</g>
		<g>
			<g>
				<g style="opacity:0.3;">
					<path style="fill:#BDD0FB;" d="M1181.671,692.684c-4.147,4.207-10.92,4.252-15.124,0.105
						c-8.17-8.057-16.811-15.879-25.685-23.249c-4.49-3.729-5.15-10.357-1.524-14.897c0.043-0.054,0.086-0.108,0.13-0.163
						c3.773-4.543,10.516-5.165,15.06-1.391c9.339,7.758,18.437,15.992,27.037,24.475c3.933,3.877,4.227,10.055,0.853,14.277
						C1182.187,692.131,1181.939,692.415,1181.671,692.684z M1095.211,636.629c-9.79-6.089-19.934-11.817-30.158-17.028
						c-5.258-2.68-7.353-9.12-4.672-14.383c2.71-5.272,9.124-7.352,14.386-4.669c10.756,5.482,21.435,11.511,31.737,17.916
						c5.015,3.119,6.552,9.715,3.433,14.73c-0.227,0.364-0.472,0.711-0.733,1.037
						C1105.868,638.406,1099.861,639.521,1095.211,636.629z M1013.284,597.606c-10.87-3.747-22.035-7.066-33.192-9.865
						c-5.727-1.437-9.206-7.248-7.769-12.976c1.443-5.721,7.246-9.203,12.976-7.769c11.748,2.948,23.509,6.445,34.953,10.39
						c5.584,1.924,8.548,8.011,6.627,13.595c-0.411,1.19-1.01,2.262-1.753,3.192
						C1022.383,597.607,1017.677,599.121,1013.284,597.606z M924.687,577.888c-11.447-1.225-23.079-1.963-34.576-2.203
						c-5.905-0.125-10.593-5.011-10.469-10.914c0.129-5.904,5.015-10.587,10.914-10.469c12.106,0.254,24.352,1.034,36.399,2.317
						c5.871,0.628,10.125,5.897,9.497,11.769c-0.224,2.101-1.042,3.995-2.27,5.532C931.978,576.679,928.458,578.288,924.687,577.888
						z M833.906,578.398c-11.405,1.346-22.916,3.199-34.207,5.513c-5.788,1.182-11.438-2.548-12.623-8.333
						c-1.186-5.789,2.547-11.439,8.334-12.619c11.878-2.433,23.99-4.383,35.991-5.799c5.864-0.694,11.18,3.5,11.872,9.367
						c0.349,2.955-0.542,5.772-2.265,7.927C839.313,576.575,836.815,578.055,833.906,578.398z M745.5,598.982
						c-10.841,3.84-21.65,8.193-32.131,12.941c-5.379,2.436-11.718,0.051-14.153-5.327c-2.438-5.381-0.055-11.716,5.326-14.156
						c11.028-4.997,22.409-9.578,33.818-13.62c5.568-1.97,11.677,0.943,13.651,6.511c1.281,3.616,0.498,7.461-1.732,10.253
						C749.075,597.091,747.453,598.291,745.5,598.982z M474.813,889.539c-5.725-1.446-9.196-7.261-7.748-12.988
						c2.966-11.73,6.485-23.49,10.459-34.949c1.935-5.581,8.028-8.536,13.607-6.599c5.578,1.932,8.533,8.025,6.598,13.604
						c-3.773,10.881-7.113,22.047-9.928,33.186c-0.386,1.528-1.082,2.894-2.007,4.051
						C483.258,889.02,479.011,890.602,474.813,889.539z M663.906,638.626c-9.71,6.151-19.272,12.799-28.418,19.762
						c-4.702,3.576-11.412,2.667-14.988-2.033c-3.579-4.702-2.647-11.389,2.034-14.987c9.632-7.331,19.701-14.333,29.928-20.81
						c4.989-3.16,11.595-1.678,14.757,3.313c2.507,3.957,2.092,8.932-0.677,12.398C665.821,637.173,664.937,637.971,663.906,638.626
						z M505.436,801.512c-5.256-2.691-7.334-9.137-4.642-14.394c5.516-10.766,11.572-21.437,17.989-31.718
						c3.109-5.029,9.726-6.532,14.736-3.407c5.008,3.127,6.533,9.724,3.406,14.736c-6.101,9.771-11.855,19.911-17.095,30.144
						c-0.334,0.653-0.729,1.254-1.17,1.806C515.552,802.568,510.037,803.87,505.436,801.512z M593.231,695.501
						c-8.084,8.164-15.922,16.784-23.296,25.626c-3.782,4.539-10.524,5.148-15.062,1.365c-4.476-3.733-5.129-10.351-1.508-14.884
						c0.047-0.059,0.095-0.119,0.145-0.175c7.76-9.311,16.011-18.388,24.518-26.981c4.159-4.195,10.928-4.229,15.126-0.074
						c3.92,3.88,4.207,10.047,0.838,14.263C593.757,694.937,593.501,695.224,593.231,695.501z"/>
					<path style="fill:#BDD0FB;" d="M474.056,960.013c1.314-1.645,2.16-3.694,2.31-5.956c0.364-5.502,0.853-11.086,1.443-16.603
						c0.632-5.871-3.618-11.145-9.488-11.775c-5.872-0.633-11.153,3.614-11.774,9.491c-0.625,5.802-1.136,11.675-1.522,17.465
						c-0.392,5.892,4.068,10.99,9.958,11.38C468.616,964.259,471.944,962.656,474.056,960.013z"/>
				</g>
				<g style="opacity:0.3;">
					<path style="fill:#BDD0FB;" d="M581.165,1267.946c3.221-4.032,3.133-9.918-0.449-13.859
						c-3.709-4.078-7.396-8.304-10.953-12.557c-3.791-4.531-10.535-5.131-15.064-1.342c-4.548,3.806-5.129,10.536-1.342,15.064
						c3.747,4.478,7.628,8.928,11.533,13.224c3.973,4.369,10.736,4.691,15.107,0.719
						C580.426,1268.804,580.815,1268.385,581.165,1267.946z"/>
					<path style="fill:#BDD0FB;" d="M1201.148,1264.428c-3.907,4.429-10.666,4.851-15.096,0.94
						c-4.427-3.908-4.844-10.655-0.939-15.093c7.441-8.43,14.636-17.309,21.476-26.486c3.496-4.724,10.231-5.712,14.966-2.183
						c4.735,3.529,5.713,10.229,2.185,14.966c-2.963,3.976-5.981,7.888-9.052,11.732
						C1210.306,1253.789,1205.751,1259.215,1201.148,1264.428z M1240.783,1191.776c-5.167-2.855-7.043-9.361-4.186-14.529
						c5.481-9.926,10.605-20.188,15.224-30.506c2.393-5.391,8.738-7.805,14.13-5.393c5.388,2.412,7.802,8.739,5.389,14.128
						c-4.862,10.864-10.254,21.669-16.025,32.112c-0.299,0.542-0.639,1.048-1.012,1.515
						C1251.111,1193.097,1245.413,1194.333,1240.783,1191.776z M1159.687,1305.376c-9.018,7.76-18.492,15.243-28.162,22.234
						c-4.786,3.461-11.472,2.386-14.934-2.401c-3.459-4.785-2.38-11.464,2.401-14.932c9.185-6.638,18.18-13.741,26.742-21.112
						c4.478-3.852,11.229-3.348,15.084,1.13c3.407,3.96,3.402,9.701,0.255,13.64
						C1160.663,1304.448,1160.202,1304.932,1159.687,1305.376z M1278.193,1108.036c-5.669-1.65-8.931-7.587-7.277-13.256
						c3.166-10.87,5.902-22.004,8.138-33.094c1.165-5.795,6.802-9.538,12.595-8.37c5.789,1.166,9.536,6.803,8.37,12.592
						c-2.354,11.679-5.236,23.406-8.568,34.851c-0.404,1.382-1.059,2.624-1.906,3.684
						C1286.919,1107.728,1282.478,1109.284,1278.193,1108.036z M1082.103,1358.405c-10.498,5.584-21.382,10.795-32.352,15.491
						c-5.429,2.325-11.712-0.19-14.038-5.618c-2.328-5.431,0.191-11.717,5.62-14.041c10.419-4.463,20.758-9.412,30.726-14.715
						c5.215-2.773,11.692-0.794,14.465,4.421c2.066,3.885,1.494,8.47-1.088,11.701
						C1084.553,1356.75,1083.431,1357.698,1082.103,1358.405z M994.77,1393.132c-11.492,3.161-23.251,5.874-34.951,8.065
						c-5.807,1.084-11.392-2.739-12.48-8.545c-1.087-5.814,2.739-11.398,8.546-12.477c11.116-2.082,22.292-4.66,33.213-7.662
						c5.695-1.567,11.581,1.78,13.148,7.475c0.942,3.432,0.101,6.933-1.962,9.516
						C998.922,1391.207,997.031,1392.511,994.77,1393.132z M901.941,1408.004c-11.914,0.584-23.986,0.671-35.875,0.261
						c-5.905-0.205-10.521-5.154-10.319-11.056c0.204-5.91,5.156-10.522,11.056-10.318c11.299,0.392,22.766,0.307,34.091-0.248
						c5.899-0.289,10.916,4.259,11.204,10.156c0.133,2.711-0.753,5.232-2.322,7.196
						C907.926,1406.308,905.13,1407.846,901.941,1408.004z M808.079,1402.27c-11.752-2.035-23.554-4.595-35.077-7.613
						c-5.713-1.495-9.134-7.34-7.637-13.054c1.493-5.704,7.341-9.129,13.055-7.634c10.939,2.864,22.144,5.295,33.31,7.228
						c5.819,1.008,9.719,6.54,8.711,12.359c-0.319,1.838-1.088,3.483-2.175,4.844C815.91,1401.349,812.063,1402.959,808.079,1402.27
						z M717.725,1376.039c-10.988-4.563-21.926-9.658-32.514-15.144c-5.245-2.718-7.295-9.173-4.576-14.416
						c2.71-5.226,9.169-7.293,14.413-4.576c10.057,5.212,20.447,10.05,30.883,14.387c5.453,2.263,8.038,8.523,5.772,13.976
						c-0.395,0.949-0.909,1.814-1.52,2.579C727.284,1376.474,722.229,1377.91,717.725,1376.039z M635.421,1330.655
						c-7.171-5.045-14.275-10.373-21.112-15.836c-2.477-1.979-4.922-3.978-7.343-6c-4.531-3.785-5.273-10.545-1.35-15.06
						c3.783-4.535,10.528-5.14,15.063-1.354c2.3,1.92,4.627,3.825,6.98,5.705c6.501,5.194,13.25,10.257,20.069,15.055
						c4.83,3.397,5.99,10.069,2.592,14.898c-0.129,0.181-0.26,0.359-0.397,0.53C646.422,1332.974,640.068,1333.926,635.421,1330.655
						z"/>
					<path style="fill:#BDD0FB;" d="M1305.284,1013.848c1.327-1.661,2.173-3.73,2.315-6.01c0.356-5.779,0.596-11.674,0.713-17.523
						c0.12-5.906-4.57-10.79-10.474-10.908c-5.905-0.117-10.79,4.565-10.908,10.474c-0.113,5.556-0.341,11.156-0.678,16.642
						c-0.365,5.892,4.119,10.966,10.014,11.33C1299.881,1018.075,1303.185,1016.475,1305.284,1013.848z"/>
				</g>
				<g>
					<g>
						<path style="fill:#7D97F4;" d="M1183.998,876.372c-0.45-2.085-2.172-3.654-4.289-3.909l-60.395-7.27
							c-12.161-25.674-28.502-49.594-48.802-70.631l14.514-59.034c0.509-2.071-0.352-4.236-2.144-5.393l-61.307-39.566
							c-1.791-1.158-4.12-1.049-5.796,0.267l-47.816,37.542c-27.531-9.833-56.06-14.873-84.464-15.378l-31.501-52.039
							c-1.105-1.824-3.245-2.747-5.329-2.297l-71.329,15.372c-2.084,0.449-3.655,2.172-3.909,4.289l-7.269,60.395
							c-25.675,12.16-49.595,28.501-70.632,48.803l-59.034-14.514c-2.071-0.509-4.237,0.351-5.392,2.143l-39.568,61.307
							c-1.156,1.792-1.048,4.12,0.269,5.796l37.542,47.816c-9.834,27.532-14.873,56.06-15.378,84.464l-52.04,31.5
							c-1.824,1.104-2.748,3.244-2.297,5.329l15.372,71.329c0.449,2.084,2.172,3.654,4.288,3.909l60.397,7.27
							c12.159,25.675,28.501,49.593,48.802,70.631l-14.514,59.034c-0.51,2.071,0.351,4.236,2.143,5.392l61.308,39.568
							c1.792,1.156,4.119,1.048,5.796-0.268l47.817-37.542c27.531,9.833,56.06,14.872,84.464,15.378l31.501,52.039
							c1.103,1.824,3.243,2.747,5.329,2.298l71.329-15.372c2.084-0.449,3.654-2.172,3.909-4.288l7.269-60.396
							c25.675-12.16,49.594-28.502,70.632-48.802l59.034,14.514c2.069,0.508,4.235-0.352,5.392-2.144l39.567-61.307
							c1.156-1.792,1.049-4.119-0.268-5.797l-37.541-47.815c9.833-27.532,14.871-56.06,15.378-84.464l52.04-31.501
							c1.824-1.104,2.746-3.245,2.297-5.328L1183.998,876.372z"/>
					</g>
					<g>
						<path style="fill:#BDD0FB;" d="M928.516,1033.178c-29.581,27.577-76.081,25.951-103.662-3.632
							c-13.361-14.329-20.341-33.004-19.653-52.582c0.684-19.575,8.95-37.718,23.285-51.077
							c29.581-27.577,76.081-25.95,103.662,3.632c25.09,26.912,26.006,67.827,3.69,95.76
							C933.625,1028.047,931.182,1030.691,928.516,1033.178z M822.301,977.564c-0.526,15.013,4.825,29.329,15.07,40.318
							c21.143,22.677,56.8,23.928,79.478,2.783c22.693-21.143,23.928-56.8,2.783-79.481c-21.143-22.677-56.8-23.928-79.479-2.783
							c-2.056,1.918-3.946,3.961-5.669,6.118C827,953.887,822.729,965.363,822.301,977.564z"/>
					</g>
					<g>
						<path style="fill:#BDD0FB;" d="M1017.666,1092.572c3.833-4.797,7.446-9.816,10.822-15.045l0,0
							c1.063-1.645,2.099-3.309,3.109-4.989c4.975-8.282,9.284-16.947,12.86-25.861c0.049-0.121,0.098-0.243,0.147-0.364
							c0.137-0.345,0.273-0.69,0.407-1.038c0.265-0.673,0.522-1.35,0.778-2.025c0.672-1.778,0.082-3.723-1.327-4.851
							c-0.343-0.274-0.735-0.499-1.166-0.662c-2.21-0.835-4.673,0.288-5.51,2.493c-4.291,11.374-9.838,22.36-16.486,32.655
							c-33.002,51.152-88.794,78.906-145.575,78.584c-31.582-0.175-63.471-9.039-91.918-27.4
							c-4.989-3.218-9.779-6.666-14.353-10.323c-30.792-24.606-52.009-58.769-60.423-97.82
							c-9.668-44.856-1.289-90.794,23.593-129.346c51.396-79.617,157.909-102.548,237.492-51.184
							c4.907,3.167,9.636,6.57,14.168,10.194c19.641,15.697,35.629,35.517,46.747,58.095c0.288,0.583,0.689,1.072,1.167,1.451
							c1.253,1.001,3.024,1.253,4.56,0.496c2.117-1.051,2.997-3.604,1.947-5.729c-11.673-23.703-28.457-44.514-49.077-60.993
							c-4.757-3.803-9.72-7.375-14.869-10.701c-83.556-53.928-195.414-29.795-249.323,53.73
							c-26.123,40.474-34.917,88.698-24.767,135.789c8.833,40.997,31.107,76.861,63.432,102.694
							c4.804,3.838,9.832,7.456,15.066,10.836c40.477,26.123,88.701,34.92,135.791,24.771
							C955.962,1147.193,991.832,1124.908,1017.666,1092.572z"/>
					</g>
				</g>
			</g>
			<g>
				<g style="opacity:0.3;">
					<path style="fill:#BDD0FB;" d="M1630.374,582.632c1.784-2.232,1.97-5.452,0.245-7.912c-3.217-4.592-6.617-9.15-10.107-13.545
						c-2.268-2.856-6.419-3.332-9.28-1.065c-2.87,2.26-3.332,6.423-1.065,9.28c3.325,4.188,6.567,8.531,9.638,12.913
						c2.089,2.986,6.208,3.709,9.199,1.619C1629.533,583.55,1629.989,583.114,1630.374,582.632z"/>
					<path style="fill:#BDD0FB;" d="M1597.073,544.383c-2.557,2.601-6.735,2.643-9.341,0.087
						c-6.574-6.445-13.554-12.629-20.746-18.374c-1.517-1.212-3.053-2.41-4.606-3.597c-2.893-2.217-3.446-6.361-1.23-9.259
						c2.205-2.656,6.361-3.446,9.264-1.23c1.624,1.244,3.23,2.498,4.818,3.766c7.538,6.023,14.858,12.506,21.75,19.268
						c2.44,2.391,2.629,6.216,0.54,8.831C1597.383,544.048,1597.231,544.216,1597.073,544.383z M1534.549,503.776
						c-9.624-5.654-19.684-10.764-29.901-15.182c-3.349-1.45-4.887-5.332-3.44-8.684c1.445-3.328,5.335-4.89,8.684-3.44
						c10.708,4.629,21.256,9.985,31.346,15.916c3.146,1.849,4.197,5.896,2.351,9.044c-0.162,0.275-0.347,0.536-0.542,0.781
						C1541.031,504.736,1537.416,505.459,1534.549,503.776z M1473.089,477.225c-10.7-3.12-21.707-5.598-32.724-7.37
						c-3.598-0.58-6.05-3.97-5.47-7.569c0.583-3.612,3.963-6.056,7.569-5.474c11.552,1.857,23.101,4.462,34.319,7.729
						c3.501,1.022,5.517,4.689,4.495,8.19c-0.252,0.852-0.657,1.618-1.18,2.273C1478.478,477.031,1475.736,477.994,1473.089,477.225
						z M1406.982,466.585c-11.155-0.401-22.44-0.112-33.522,0.863c-3.638,0.317-6.841-2.37-7.158-6.003
						c-0.316-3.625,2.366-6.836,5.999-7.158c11.63-1.02,23.454-1.323,35.156-0.903c3.645,0.13,6.495,3.196,6.365,6.84
						c-0.058,1.468-0.585,2.809-1.439,3.878C1411.122,465.682,1409.157,466.664,1406.982,466.585z M1340.281,472.408
						c-10.913,2.323-21.78,5.344-32.31,8.976c-3.444,1.191-7.206-0.642-8.396-4.091s0.635-7.212,4.091-8.397
						c11.034-3.808,22.428-6.972,33.863-9.412c3.568-0.756,7.076,1.518,7.835,5.083c0.429,2.015-0.109,4.012-1.301,5.504
						C1343.143,471.222,1341.834,472.075,1340.281,472.408z M1277.015,494.245c-10.01,4.903-19.804,10.477-29.116,16.573
						c-3.049,1.997-7.146,1.143-9.142-1.908c-1.995-3.051-1.146-7.132,1.908-9.146c9.763-6.392,20.041-12.24,30.54-17.383
						c3.276-1.601,7.232-0.249,8.835,3.025c1.16,2.371,0.772,5.1-0.772,7.033C1278.678,493.176,1277.922,493.802,1277.015,494.245z
						 M1221.034,530.876c-8.474,7.187-16.609,15.002-24.177,23.235c-2.472,2.682-6.65,2.857-9.333,0.387
						c-2.685-2.466-2.822-6.605-0.392-9.336c7.939-8.625,16.468-16.82,25.355-24.358c2.783-2.358,6.952-2.016,9.312,0.765
						c2.075,2.446,2.058,5.97,0.125,8.388C1221.663,530.285,1221.367,530.594,1221.034,530.876z M1148.95,611.224
						c-3.205-1.743-4.388-5.751-2.644-8.957c4.825-8.871,10.221-17.629,16.016-26.01c0.874-1.279,1.764-2.538,2.66-3.794
						c2.027-3.012,6.251-3.649,9.218-1.514c2.966,2.126,3.642,6.249,1.519,9.217c-0.846,1.174-1.679,2.361-2.513,3.581
						c-5.55,8.021-10.696,16.375-15.299,24.833c-0.188,0.349-0.407,0.674-0.644,0.971
						C1155.299,612.008,1151.803,612.777,1148.95,611.224z"/>
				</g>
				<g style="opacity:0.3;">
					<path style="fill:#BDD0FB;" d="M1617.336,919.634c-7.301,8.9-15.211,17.427-23.503,25.358c-2.638,2.516-6.817,2.426-9.34-0.214
						c-2.523-2.639-2.384-6.812,0.214-9.34c7.911-7.557,15.453-15.695,22.418-24.186c2.312-2.821,6.477-3.23,9.294-0.917
						c2.797,2.296,3.225,6.411,0.974,9.228C1617.374,919.586,1617.354,919.611,1617.336,919.634z M1628.512,893.637
						c-3.075-1.958-3.982-6.042-2.021-9.116c5.893-9.256,11.286-18.962,16.025-28.851c1.576-3.265,5.521-4.679,8.814-3.096
						c3.29,1.576,4.674,5.517,3.1,8.809c-4.968,10.362-10.619,20.535-16.798,30.232c-0.131,0.205-0.267,0.397-0.417,0.584
						C1635.138,894.799,1631.39,895.47,1628.512,893.637z M1567.4,967.32c-9.241,6.875-18.978,13.245-28.944,18.93
						c-3.169,1.807-7.207,0.702-9.011-2.465c-1.812-3.168-0.707-7.186,2.46-9.011c9.509-5.422,18.796-11.497,27.615-18.052
						c2.928-2.177,7.065-1.568,9.238,1.354c1.831,2.462,1.692,5.777-0.136,8.065C1568.276,966.575,1567.868,966.972,1567.4,967.32z
						 M1659.079,833.469c-3.457-1.161-5.317-4.908-4.156-8.365c3.495-10.4,6.384-21.116,8.585-31.857
						c0.737-3.568,4.229-5.872,7.793-5.146c3.575,0.734,5.88,4.224,5.147,7.798c-2.304,11.265-5.334,22.508-9.003,33.414
						c-0.256,0.754-0.632,1.431-1.101,2.018C1664.661,833.437,1661.781,834.377,1659.079,833.469z M1507.44,1001.512
						c-10.599,4.441-21.581,8.278-32.644,11.409c-3.51,0.993-7.162-1.049-8.155-4.559c-0.994-3.51,1.041-7.164,4.558-8.156
						c10.555-2.981,21.026-6.643,31.133-10.883c3.363-1.408,7.234,0.174,8.645,3.543c0.967,2.304,0.524,4.852-0.935,6.679
						C1509.376,1000.38,1508.496,1001.068,1507.44,1001.512z M1441.019,1020.324c-11.376,1.776-22.963,2.876-34.433,3.273
						c-3.643,0.127-6.699-2.723-6.825-6.369c-0.129-3.641,2.723-6.704,6.373-6.83c10.937-0.38,21.99-1.432,32.847-3.127
						c3.604-0.564,6.982,1.904,7.545,5.508c0.296,1.904-0.251,3.746-1.368,5.144
						C1444.163,1019.168,1442.716,1020.059,1441.019,1020.324z M1371.998,1022.693c-11.479-0.998-22.996-2.712-34.226-5.087
						c-3.572-0.757-5.85-4.261-5.095-7.831c0.753-3.568,4.264-5.844,7.827-5.095c10.71,2.27,21.692,3.902,32.635,4.847
						c3.635,0.316,6.327,3.519,6.008,7.153c-0.113,1.35-0.629,2.564-1.414,3.547
						C1376.4,1021.895,1374.286,1022.889,1371.998,1022.693z"/>
					<path style="fill:#BDD0FB;" d="M1679.926,764.925c0.795-0.995,1.311-2.23,1.42-3.596c0.449-5.635,0.73-11.309,0.843-16.865
						c0.072-3.645-2.824-6.665-6.471-6.739c-3.64-0.063-6.658,2.826-6.739,6.472c-0.105,5.299-0.377,10.712-0.801,16.09
						c-0.289,3.637,2.428,6.819,6.062,7.106C1676.509,767.57,1678.604,766.581,1679.926,764.925z"/>
				</g>
				<g>
					<g>
						<path style="fill:#7D97F4;" d="M1599.551,668.227c-0.302-1.395-1.453-2.445-2.87-2.616l-40.414-4.865
							c-8.137-17.18-19.073-33.185-32.656-47.263l9.712-39.503c0.34-1.386-0.235-2.834-1.434-3.609l-41.024-26.476
							c-1.198-0.775-2.757-0.702-3.878,0.178l-31.996,25.122c-18.423-6.58-37.513-9.953-56.519-10.291l-21.079-34.822
							c-0.739-1.221-2.171-1.838-3.566-1.537l-47.73,10.286c-1.395,0.3-2.446,1.453-2.616,2.87l-4.864,40.413
							c-17.18,8.137-33.187,19.072-47.264,32.657l-39.503-9.712c-1.386-0.34-2.835,0.235-3.608,1.434l-26.477,41.024
							c-0.774,1.199-0.701,2.756,0.18,3.878l25.121,31.997c-6.58,18.423-9.953,37.513-10.29,56.519l-34.823,21.079
							c-1.22,0.739-1.838,2.171-1.537,3.565l10.286,47.731c0.301,1.394,1.453,2.444,2.869,2.615l40.415,4.865
							c8.136,17.18,19.071,33.186,32.656,47.263l-9.712,39.503c-0.341,1.385,0.235,2.834,1.434,3.608l41.024,26.477
							c1.199,0.773,2.756,0.701,3.879-0.18l31.996-25.121c18.423,6.58,37.513,9.952,56.52,10.29l21.078,34.822
							c0.739,1.221,2.17,1.838,3.566,1.538l47.73-10.286c1.395-0.301,2.445-1.453,2.616-2.87l4.864-40.414
							c17.18-8.137,33.186-19.072,47.264-32.657l39.503,9.712c1.385,0.34,2.834-0.236,3.609-1.434l26.476-41.024
							c0.773-1.199,0.702-2.757-0.18-3.878l-25.12-31.996c6.58-18.423,9.951-37.513,10.29-56.519l34.823-21.079
							c1.221-0.739,1.838-2.171,1.537-3.565L1599.551,668.227z"/>
					</g>
					<g>
						<path style="fill:#BDD0FB;" d="M1429.197,773.795c-9.76,9.106-22.483,13.86-35.821,13.391
							c-13.333-0.465-25.691-6.098-34.791-15.861c-18.784-20.146-17.67-51.767,2.473-70.614
							c20.156-18.781,51.829-17.67,70.607,2.475c9.102,9.76,13.858,22.481,13.391,35.817c-0.38,10.841-4.175,21.035-10.825,29.36
							C1432.701,770.276,1431.019,772.094,1429.197,773.795z M1368.243,762.316c6.696,7.182,15.784,11.326,25.598,11.671
							c9.807,0.343,19.166-3.156,26.346-9.849l0,0c7.172-6.703,11.322-15.784,11.666-25.598c0.347-9.807-3.157-19.165-9.847-26.343
							c-13.818-14.821-37.115-15.638-51.941-1.824c-1.336,1.249-2.558,2.571-3.667,3.96
							C1355.215,728.329,1355.674,748.835,1368.243,762.316z"/>
					</g>
					<g>
						<path style="fill:#BDD0FB;" d="M1491.247,815.13c2.609-3.265,5.071-6.689,7.388-10.271c4.595-7.115,8.471-14.705,11.526-22.58
							c0.135-0.355,0.269-0.71,0.404-1.065c1.038-2.746,0.126-5.748-2.049-7.49c-0.529-0.422-1.135-0.77-1.8-1.021
							c-3.412-1.289-7.211,0.448-8.508,3.849c-2.782,7.379-6.375,14.489-10.671,21.138l-0.002,0.003
							c-0.234,0.366-0.476,0.729-0.714,1.089c-10.31,15.643-24.128,28.124-40.233,36.709c-8.743,4.66-18.167,8.169-28.081,10.399
							c-0.081,0.018-0.161,0.036-0.242,0.055c-0.249,0.053-0.493,0.11-0.74,0.161c-29.039,6.256-58.778,0.833-83.736-15.276
							c-3.232-2.083-6.329-4.313-9.292-6.681c-19.934-15.929-33.667-38.047-39.119-63.33c-6.256-29.039-0.828-58.775,15.278-83.73
							c16.107-24.935,40.973-42.15,70.009-48.413c29.039-6.256,58.778-0.833,83.736,15.276c3.177,2.047,6.237,4.253,9.17,6.596
							c12.717,10.164,23.066,22.993,30.262,37.609c0.445,0.901,1.063,1.655,1.801,2.24c1.935,1.546,4.671,1.936,7.041,0.767
							c3.268-1.621,4.621-5.568,3.006-8.847c-8.053-16.353-19.633-30.71-33.854-42.081c-3.286-2.625-6.707-5.09-10.259-7.383
							c-27.928-18.023-61.197-24.091-93.688-17.089c-32.485,7.004-60.311,26.209-78.322,54.159
							c-18.024,27.923-24.094,61.19-17.087,93.681c6.092,28.284,21.46,53.028,43.762,70.85c3.311,2.645,6.78,5.144,10.391,7.475
							C1380.689,876.817,1451.917,864.358,1491.247,815.13z"/>
					</g>
				</g>
			</g>
		</g>
		<g>
			
				<linearGradient id="SVGID_00000146460519874344462120000008727031643899805319_" gradientUnits="userSpaceOnUse" x1="2304.7339" y1="1630.817" x2="2797.3035" y2="1630.817">
				<stop  offset="0" style="stop-color:#09005D"/>
				<stop  offset="1" style="stop-color:#1A0F91"/>
			</linearGradient>
			
				<rect x="2304.734" y="1557.937" style="fill:url(#SVGID_00000146460519874344462120000008727031643899805319_);" width="492.569" height="145.76"/>
			<g>
				
					<linearGradient id="SVGID_00000176040715120290653500000017068553579535312022_" gradientUnits="userSpaceOnUse" x1="2307.4189" y1="1057.8489" x2="2938.4993" y2="1966.9037">
					<stop  offset="0" style="stop-color:#4F52FF"/>
					<stop  offset="1" style="stop-color:#4042E2"/>
				</linearGradient>
				<path style="fill:url(#SVGID_00000176040715120290653500000017068553579535312022_);" d="M2802.929,1157.02l-468.915-3.041
					c-111.566-0.723-203.439,89.966-204.163,201.532l-1.204,185.733c-0.273,42.051,33.91,76.68,75.961,76.953l721.695,4.679
					c42.052,0.273,76.68-33.91,76.953-75.961l1.204-185.732C3005.184,1249.616,2914.495,1157.743,2802.929,1157.02z"/>
				<g>
					
						<linearGradient id="SVGID_00000145762995311314511890000002749350284650337434_" gradientUnits="userSpaceOnUse" x1="2321.2783" y1="1504.2729" x2="2978.564" y2="1504.2729" gradientTransform="matrix(1 0.0065 -0.0065 1 -85.7524 -118.3524)">
						<stop  offset="0" style="stop-color:#09005D"/>
						<stop  offset="1" style="stop-color:#1A0F91"/>
					</linearGradient>
					<path style="fill:url(#SVGID_00000145762995311314511890000002749350284650337434_);" d="M2882.915,1423.595
						c-0.21,32.455-25.028,59.535-57.36,62.367c-175.001,15.331-356.432,14.65-543.102-3.689
						c-32.391-3.182-57.032-30.592-56.821-63.139l0.221-34.12c0.21-32.354,24.901-59.352,57.116-62.342
						c181.619-16.858,363.22-18.839,544.797,2.658c31.776,3.762,55.586,30.979,55.378,62.976L2882.915,1423.595z"/>
					<g>
						
							<ellipse transform="matrix(0.7071 -0.7071 0.7071 0.7071 -296.0352 2091.8018)" style="fill:#7D97F4;" cx="2377.01" cy="1403.247" rx="39.926" ry="39.926"/>
						<path style="fill:#7D97F4;" d="M2771.681,1405.806c-0.143,22.05-18.134,39.809-40.185,39.667
							c-22.05-0.143-39.81-18.134-39.666-40.184c0.143-22.05,18.134-39.81,40.184-39.667
							C2754.065,1365.765,2771.824,1383.756,2771.681,1405.806z"/>
					</g>
				</g>
				
					<linearGradient id="SVGID_00000008853854169129807090000018060289422878818194_" gradientUnits="userSpaceOnUse" x1="2273.6721" y1="1072.3752" x2="2245.5786" y2="1325.2167" gradientTransform="matrix(1 0.0065 -0.0065 1 -85.7524 -118.3524)">
					<stop  offset="0" style="stop-color:#4F52FF"/>
					<stop  offset="1" style="stop-color:#4042E2"/>
				</linearGradient>
				<path style="fill:url(#SVGID_00000008853854169129807090000018060289422878818194_);" d="M2192.386,1060.02
					c-0.08,12.237-10.063,22.092-22.299,22.012c-12.237-0.08-22.092-10.063-22.012-22.3c0.079-12.236,10.063-22.091,22.3-22.012
					C2182.61,1037.8,2192.465,1047.784,2192.386,1060.02z"/>
				
					<linearGradient id="SVGID_00000139281267394125064250000000010789679825629353_" gradientUnits="userSpaceOnUse" x1="2263.5471" y1="1295.4841" x2="2345.3918" y2="1295.4841" gradientTransform="matrix(1 0.0065 -0.0065 1 -85.7524 -118.3524)">
					<stop  offset="0" style="stop-color:#09005D"/>
					<stop  offset="1" style="stop-color:#1A0F91"/>
				</linearGradient>
				<path style="fill:url(#SVGID_00000139281267394125064250000000010789679825629353_);" d="M2169.043,1242.951
					c0,0,52.867,7.114,82.249-61.773l-13.876-29.081c-4.723-9.899-16.623-14.03-26.464-9.189l-30.472,14.99
					c-6.693,3.292-10.951,10.083-10.999,17.541L2169.043,1242.951z"/>
				
					<linearGradient id="SVGID_00000005233617357573923270000017857166901322519712_" gradientUnits="userSpaceOnUse" x1="2300.6716" y1="1080.1165" x2="2273.8918" y2="1321.1345" gradientTransform="matrix(1 0.0065 -0.0065 1 -85.7524 -118.3524)">
					<stop  offset="0" style="stop-color:#4F52FF"/>
					<stop  offset="1" style="stop-color:#4042E2"/>
				</linearGradient>
				<path style="fill:url(#SVGID_00000005233617357573923270000017857166901322519712_);" d="M2174.553,1070.148
					c-0.569-1.352-2.602-0.749-2.341,0.695l17.602,97.36c0.401,2.215,1.886,4.081,3.954,4.968s4.444,0.677,6.325-0.559l5.658-3.719
					c4.705-3.093,6.533-9.101,4.349-14.29L2174.553,1070.148z"/>
				
					<linearGradient id="SVGID_00000092429792576694928160000002564137232978160042_" gradientUnits="userSpaceOnUse" x1="3061.5488" y1="1159.9052" x2="3033.4553" y2="1412.7474" gradientTransform="matrix(1 0.0065 -0.0065 1 -85.7524 -118.3524)">
					<stop  offset="0" style="stop-color:#4F52FF"/>
					<stop  offset="1" style="stop-color:#4042E2"/>
				</linearGradient>
				<path style="fill:url(#SVGID_00000092429792576694928160000002564137232978160042_);" d="M2945.678,1064.905
					c-0.079,12.237,9.776,22.22,22.012,22.3c12.236,0.079,22.22-9.776,22.3-22.013c0.079-12.236-9.776-22.22-22.012-22.299
					C2955.741,1042.813,2945.757,1052.669,2945.678,1064.905z"/>
				
					<linearGradient id="SVGID_00000031186559556708189510000001696591813072333460_" gradientUnits="userSpaceOnUse" x1="2979.3064" y1="1295.4722" x2="3061.1521" y2="1295.4722" gradientTransform="matrix(1 0.0065 -0.0065 1 -85.7524 -118.3524)">
					<stop  offset="0" style="stop-color:#09005D"/>
					<stop  offset="1" style="stop-color:#1A0F91"/>
				</linearGradient>
				<path style="fill:url(#SVGID_00000031186559556708189510000001696591813072333460_);" d="M2966.647,1248.123
					c0,0-52.955,6.428-81.441-62.834l14.252-28.899c4.852-9.837,16.804-13.813,26.581-8.845l30.274,15.383
					c6.649,3.379,10.819,10.224,10.771,17.682L2966.647,1248.123z"/>
				
					<linearGradient id="SVGID_00000095306224233885048930000009602213294803467396_" gradientUnits="userSpaceOnUse" x1="3046.0225" y1="1158.6796" x2="3018.969" y2="1402.1588" gradientTransform="matrix(1 0.0065 -0.0065 1 -85.7524 -118.3524)">
					<stop  offset="0" style="stop-color:#4F52FF"/>
					<stop  offset="1" style="stop-color:#4042E2"/>
				</linearGradient>
				<path style="fill:url(#SVGID_00000095306224233885048930000009602213294803467396_);" d="M2965.709,1075.988l-18.781,96.702
					c-0.447,2.303-2.021,4.228-4.189,5.125c-2.168,0.897-4.642,0.646-6.585-0.668l-5.253-3.552
					c-4.664-3.153-6.415-9.185-4.163-14.345l36.641-83.988C2963.964,1073.918,2965.989,1074.548,2965.709,1075.988z"/>
				<path style="fill:#7D97F4;" d="M2320.08,1267.035c-12.022-0.078-22.203-9.333-23.208-21.544
					c-1.062-12.917,8.549-24.248,21.463-25.31c170.656-14.032,326.539-13.513,476.545,1.588
					c12.895,1.296,22.295,12.803,20.997,25.696c-1.299,12.895-12.761,22.304-25.696,20.998
					c-147.134-14.808-300.216-15.302-468-1.508C2321.475,1267.013,2320.775,1267.039,2320.08,1267.035z"/>
				<path style="fill:#7D97F4;" d="M2557.109,1509.596c-94.823-0.615-190.371-5.932-286.023-15.952
					c-35.069-3.673-61.331-34.859-61.086-72.54l0.246-38.022c0.242-37.39,26.667-68.205,61.465-71.679
					c205.243-20.486,390.878-19.6,567.523,2.709c34.181,4.317,59.779,35.422,59.54,72.355l-0.255,39.325
					c-0.244,37.587-26.782,68.416-61.732,71.708C2744.741,1506.176,2651.284,1510.207,2557.109,1509.596z M2570.4,1301.146
					c-95.294-0.618-194.248,4.267-298.25,14.651c-32.545,3.247-57.26,32.186-57.487,67.313l-0.247,38.023
					c-0.229,35.4,24.33,64.685,57.132,68.123c190.358,19.936,380.393,21.231,564.826,3.85c32.682-3.08,57.5-32.031,57.729-67.343
					l0.255-39.325c0.225-34.7-23.71-63.91-55.677-67.947C2751.859,1307.525,2662.852,1301.746,2570.4,1301.146z"/>
			</g>
			
				<linearGradient id="SVGID_00000049921031356959212740000007150252564437391287_" gradientUnits="userSpaceOnUse" x1="2091.2678" y1="2930.3513" x2="3068.3477" y2="1273.5636">
				<stop  offset="0" style="stop-color:#4F52FF"/>
				<stop  offset="1" style="stop-color:#4042E2"/>
			</linearGradient>
			<path style="fill:url(#SVGID_00000049921031356959212740000007150252564437391287_);" d="M2992.414,2583.286h-859.381
				c-20.847,0-37.748-16.9-37.748-37.748v-829.224c0-20.847,16.9-37.748,37.748-37.748h859.381c20.848,0,37.748,16.9,37.748,37.748
				v829.224C3030.162,2566.385,3013.262,2583.286,2992.414,2583.286z"/>
			<g>
				<g>
					<g>
						
							<linearGradient id="SVGID_00000126322636375689545430000013845012952186261410_" gradientUnits="userSpaceOnUse" x1="2592.7822" y1="2117.6389" x2="2492.2529" y2="1749.0311">
							<stop  offset="0" style="stop-color:#FE7062"/>
							<stop  offset="1" style="stop-color:#FF928E"/>
						</linearGradient>
						<path style="fill:url(#SVGID_00000126322636375689545430000013845012952186261410_);" d="M2759.203,1931.434
							c0,5.73-0.236,11.427-0.738,17.057c-5.126,61.792-38.067,117.318-86.991,153.743c-34.181,25.501-76.235,41.619-122.01,44.032
							c-120.802,6.366-221.466-84.679-221.466-203.505c0-61.39,26.875-116.782,69.533-155.988
							c6.468-5.965,13.337-11.561,20.508-16.721c36.961-26.674,82.534-42.424,131.425-42.424
							C2666.681,1727.628,2759.203,1818.875,2759.203,1931.434z"/>
					</g>
					<g>
						<path style="fill:#FFFFFF;" d="M2543.599,2091.219c-84.979,0-154.112-69.135-154.112-154.115
							c0-84.979,69.134-154.115,154.112-154.115s154.116,69.136,154.116,154.115
							C2697.715,2022.083,2628.578,2091.219,2543.599,2091.219z M2543.599,1796.394c-77.586,0-140.708,63.123-140.708,140.71
							c0,77.588,63.122,140.71,140.708,140.71c77.59,0,140.712-63.122,140.712-140.71
							C2684.311,1859.516,2621.188,1796.394,2543.599,1796.394z"/>
					</g>
					<g>
						<circle style="fill:#FFFFFF;" cx="2469.736" cy="1905.145" r="19.67"/>
						<circle style="fill:#FFFFFF;" cx="2615.977" cy="1905.145" r="19.67"/>
					</g>
					<path style="fill:#FFFFFF;" d="M2619.825,1962.134c0,33.51-33.837,59.01-75.576,59.01c-41.74,0-75.576-25.5-75.576-59.01
						H2619.825z"/>
				</g>
				<g>
					<g>
						<path style="fill:#91B3FA;" d="M2249.533,2220.632c-0.08,12.203-10.038,22.03-22.241,21.949
							c-12.203-0.08-22.03-10.038-21.95-22.241c0.08-12.202,10.038-22.03,22.241-21.948
							C2239.786,2198.471,2249.613,2208.429,2249.533,2220.632z"/>
					</g>
					<g>
						<path style="fill:#91B3FA;" d="M2249.533,2354.578c-0.08,12.203-10.038,22.03-22.241,21.949
							c-12.203-0.08-22.03-10.038-21.95-22.241c0.08-12.203,10.038-22.03,22.241-21.949
							C2239.786,2332.417,2249.613,2342.375,2249.533,2354.578z"/>
					</g>
					<g>
						<path style="fill:#91B3FA;" d="M2249.533,2488.524c-0.08,12.203-10.038,22.03-22.241,21.949
							c-12.203-0.08-22.03-10.038-21.95-22.241c0.08-12.203,10.038-22.03,22.241-21.949
							C2239.786,2466.364,2249.613,2476.321,2249.533,2488.524z"/>
					</g>
					<path style="fill:#91B3FA;" d="M2283.523,2219.482l0.102,3.763c0.276,10.187,6.639,18.271,14.415,18.31l591.793,0.897
						c8.029,0.041,14.551-8.49,14.537-19.015l0,0c-0.013-10.322-6.315-18.738-14.188-18.947l-591.895-4.66
						C2289.975,2199.61,2283.229,2208.591,2283.523,2219.482z"/>
					<path style="fill:#91B3FA;" d="M2283.523,2352.775l0.102,3.763c0.276,10.187,6.639,18.271,14.415,18.31l591.793,0.897
						c8.029,0.041,14.551-8.49,14.537-19.015l0,0c-0.013-10.322-6.315-18.739-14.188-18.947l-591.895-4.66
						C2289.975,2332.903,2283.229,2341.883,2283.523,2352.775z"/>
					<path style="fill:#91B3FA;" d="M2283.523,2486.067l0.102,3.763c0.276,10.187,6.639,18.271,14.415,18.31l591.793,0.897
						c8.029,0.041,14.551-8.49,14.537-19.015l0,0c-0.013-10.322-6.315-18.739-14.188-18.947l-591.895-4.661
						C2289.975,2466.195,2283.229,2475.175,2283.523,2486.067z"/>
				</g>
			</g>
		</g>
	</g>
</g>
</svg>
