<svg id="Layer_1" viewBox="0 0 24 24" xmlns="http://www.w3.org/2000/svg" data-name="Layer 1"><path d="m14.743 9.257c.11.654.257 1.715.257 2.743s-.146 2.089-.257 2.743c-.654.11-1.715.257-2.743.257s-2.089-.146-2.743-.257c-.11-.654-.257-1.715-.257-2.743s.146-2.089.257-2.743c.654-.11 1.715-.257 2.743-.257s2.089.146 2.743.257zm8.257 4.743c0 .553-.447 1-1 1h-1.156c-.07.723-.155 1.403-.242 2h.898c.553 0 1 .447 1 1s-.447 1-1 1h-1.238c-.047.239-.079.386-.085.414-.083.382-.381.68-.763.763-.028.006-.175.038-.414.085v1.238c0 .553-.447 1-1 1s-1-.447-1-1v-.898c-.597.087-1.277.172-2 .242v1.156c0 .553-.447 1-1 1s-1-.447-1-1v-1.021c-.332.012-.666.021-1 .021s-.668-.009-1-.021v1.021c0 .553-.447 1-1 1s-1-.447-1-1v-1.156c-.723-.07-1.403-.155-2-.242v.898c0 .553-.447 1-1 1s-1-.447-1-1v-1.238c-.239-.047-.386-.079-.414-.085-.382-.083-.68-.381-.763-.763-.006-.028-.038-.175-.085-.414h-1.238c-.553 0-1-.447-1-1s.447-1 1-1h.898c-.087-.597-.172-1.277-.242-2h-1.156c-.553 0-1-.447-1-1s.447-1 1-1h1.021c-.012-.332-.021-.666-.021-1s.009-.668.021-1h-1.021c-.553 0-1-.447-1-1s.447-1 1-1h1.156c.07-.723.155-1.403.242-2h-.898c-.553 0-1-.447-1-1s.447-1 1-1h1.238c.047-.239.079-.386.085-.414.083-.382.381-.68.763-.763.028-.006.175-.038.414-.085v-1.238c0-.553.447-1 1-1s1 .447 1 1v.898c.597-.087 1.277-.172 2-.242v-1.156c0-.553.447-1 1-1s1 .447 1 1v1.021c.332-.012.666-.021 1-.021s.668.009 1 .021v-1.021c0-.553.447-1 1-1s1 .447 1 1v1.156c.723.07 1.403.155 2 .242v-.898c0-.553.447-1 1-1s1 .447 1 1v1.238c.239.047.386.079.414.085.382.083.68.381.763.763.006.028.038.175.085.414h1.238c.553 0 1 .447 1 1s-.447 1-1 1h-.898c.087.597.172 1.277.242 2h1.156c.553 0 1 .447 1 1s-.447 1-1 1h-1.021c.012.332.021.666.021 1s-.009.668-.021 1h1.021c.553 0 1 .447 1 1zm-6-2c0-1.864-.406-3.735-.424-3.814-.084-.381-.381-.678-.762-.762-.079-.018-1.95-.424-3.814-.424s-3.735.406-3.814.424c-.381.084-.678.381-.762.762-.018.079-.424 1.95-.424 3.814s.406 3.735.424 3.814c.084.381.381.678.762.762.079.018 1.95.424 3.814.424s3.735-.406 3.814-.424c.381-.084.678-.381.762-.762.018-.079.424-1.95.424-3.814z"/></svg>